<svg id="visual" viewBox="0 0 900 600" width="900" height="600" xmlns="http://www.w3.org/2000/svg" xmlns:xlink="http://www.w3.org/1999/xlink" version="1.1"><g transform="translate(430.63575946256935 319.6323469285496)"><path d="M107.8 -160.8C153.3 -138.6 213.1 -131.6 242.9 -100.8C272.7 -70 272.4 -15.5 262.7 36.3C253 88.1 233.8 137 199.1 166.8C164.4 196.6 114.2 207.2 70.1 204.3C26.1 201.5 -11.7 185.2 -41.3 165.3C-70.8 145.3 -92.1 121.8 -127.9 100C-163.7 78.2 -214 58.1 -226.5 27.4C-239 -3.3 -213.6 -44.7 -195.1 -90.7C-176.5 -136.7 -164.8 -187.4 -133.4 -216C-102 -244.7 -51 -251.4 -9.9 -235.9C31.2 -220.5 62.4 -183 107.8 -160.8" fill="#4f4cc2"></path></g></svg>