<?xml version="1.0" encoding="UTF-8"?>
<svg xmlns="http://www.w3.org/2000/svg" xmlns:xlink="http://www.w3.org/1999/xlink" viewBox="0 0 60 60" width="50px" height="50px">
<g id="surface115375348">
<path style=" stroke:none;fill-rule:nonzero;fill:rgb(30.980393%,29.803923%,76.078433%);fill-opacity:1;" d="M 50.855469 6.664062 C 50.476562 6.242188 49.933594 6 49.367188 6 L 10.632812 6 C 10.066406 6 9.523438 6.242188 9.144531 6.664062 C 8.765625 7.089844 8.585938 7.65625 8.644531 8.21875 L 13.050781 47.867188 C 13.136719 48.671875 13.707031 49.347656 14.488281 49.566406 L 29.449219 53.84375 C 29.628906 53.894531 29.8125 53.921875 29.996094 53.921875 C 30.183594 53.921875 30.367188 53.894531 30.546875 53.84375 L 45.507812 49.566406 C 46.289062 49.347656 46.855469 48.671875 46.945312 47.867188 L 51.351562 8.21875 C 51.414062 7.65625 51.234375 7.089844 50.855469 6.664062 Z M 41.257812 20.859375 L 23.398438 20.859375 L 23.820312 25.945312 L 40.828125 25.945312 L 39.550781 40.964844 L 30.007812 44 L 29.910156 43.96875 L 20.472656 40.960938 L 19.957031 34.839844 L 24.578125 34.839844 L 24.78125 37.21875 L 30.054688 38.378906 L 35.238281 37.214844 L 35.789062 30.789062 L 19.609375 30.789062 L 18.355469 16 L 41.675781 16 Z M 41.257812 20.859375 "/>
</g>
</svg>
