<?xml version="1.0" encoding="UTF-8"?>
<svg xmlns="http://www.w3.org/2000/svg" xmlns:xlink="http://www.w3.org/1999/xlink" viewBox="0 0 100 100" width="100px" height="100px">
<g id="surface115277674">
<path style=" stroke:none;fill-rule:nonzero;fill:rgb(30.980393%,29.803923%,76.078433%);fill-opacity:1;" d="M 50 6 C 33.460938 6 20 19.460938 20 36 C 20 48.335938 25.570312 54.28125 29.625 58.625 C 32.179688 61.367188 34 63.335938 34 66 L 34 76 L 48 76 L 48 46.8125 L 40.5625 39.4375 C 39.78125 38.65625 39.78125 37.34375 40.5625 36.5625 C 41.34375 35.78125 42.65625 35.78125 43.4375 36.5625 L 50 43.1875 L 56.5625 36.5625 C 57.34375 35.78125 58.65625 35.78125 59.4375 36.5625 C 60.21875 37.34375 60.21875 38.65625 59.4375 39.4375 L 52 46.8125 L 52 76 L 66 76 L 66 66 C 66 62.171875 68.210938 59.851562 71 56.9375 C 75.015625 52.742188 80 47.546875 80 36 C 80 19.460938 66.539062 6 50 6 Z M 34 80 L 34 86 C 34 89.304688 36.695312 92 40 92 L 42.3125 92 C 43.203125 95.445312 46.28125 98 50 98 C 53.71875 98 56.796875 95.445312 57.6875 92 L 60 92 C 63.304688 92 66 89.304688 66 86 L 66 80 Z M 34 80 "/>
</g>
</svg>
