<?xml version="1.0" encoding="UTF-8"?>
<svg xmlns="http://www.w3.org/2000/svg" xmlns:xlink="http://www.w3.org/1999/xlink" viewBox="0 0 48 48" width="48px" height="48px">
<g id="surface115430530">
<path style=" stroke:none;fill-rule:nonzero;fill:rgb(30.980393%,29.803923%,76.078433%);fill-opacity:1;" d="M 23.96875 -0.0273438 C 22.867188 -0.0117188 21.984375 0.898438 22 2 L 22 4 C 21.988281 4.722656 22.367188 5.390625 22.992188 5.753906 C 23.613281 6.121094 24.386719 6.121094 25.007812 5.753906 C 25.632812 5.390625 26.011719 4.722656 26 4 L 26 2 C 26.007812 1.460938 25.796875 0.9375 25.414062 0.558594 C 25.03125 0.175781 24.507812 -0.0351562 23.96875 -0.0273438 Z M 8.421875 6.421875 C 7.605469 6.421875 6.875 6.917969 6.566406 7.671875 C 6.261719 8.425781 6.445312 9.292969 7.03125 9.859375 L 8.445312 11.273438 C 8.945312 11.796875 9.691406 12.007812 10.394531 11.824219 C 11.09375 11.640625 11.640625 11.09375 11.824219 10.394531 C 12.007812 9.691406 11.796875 8.945312 11.273438 8.445312 L 9.859375 7.03125 C 9.484375 6.640625 8.964844 6.421875 8.421875 6.421875 Z M 39.515625 6.425781 C 38.996094 6.441406 38.503906 6.660156 38.140625 7.03125 L 36.726562 8.445312 C 36.203125 8.945312 35.992188 9.691406 36.175781 10.394531 C 36.359375 11.09375 36.90625 11.640625 37.605469 11.824219 C 38.308594 12.007812 39.054688 11.796875 39.554688 11.273438 L 40.96875 9.859375 C 41.558594 9.285156 41.738281 8.40625 41.417969 7.644531 C 41.09375 6.886719 40.339844 6.402344 39.515625 6.425781 Z M 24 10 C 16.28125 10 10 16.28125 10 24 C 10 29.570312 13.277344 34.375 18 36.628906 L 18 42 C 18 44.207031 19.792969 46 22 46 L 26 46 C 28.207031 46 30 44.207031 30 42 L 30 36.628906 C 34.722656 34.375 38 29.570312 38 24 C 38 16.28125 31.71875 10 24 10 Z M 2 22 C 1.277344 21.988281 0.609375 22.367188 0.246094 22.992188 C -0.121094 23.613281 -0.121094 24.386719 0.246094 25.007812 C 0.609375 25.632812 1.277344 26.011719 2 26 L 4 26 C 4.722656 26.011719 5.390625 25.632812 5.753906 25.007812 C 6.121094 24.386719 6.121094 23.613281 5.753906 22.992188 C 5.390625 22.367188 4.722656 21.988281 4 22 Z M 44 22 C 43.277344 21.988281 42.609375 22.367188 42.246094 22.992188 C 41.878906 23.613281 41.878906 24.386719 42.246094 25.007812 C 42.609375 25.632812 43.277344 26.011719 44 26 L 46 26 C 46.722656 26.011719 47.390625 25.632812 47.753906 25.007812 C 48.121094 24.386719 48.121094 23.613281 47.753906 22.992188 C 47.390625 22.367188 46.722656 21.988281 46 22 Z M 9.820312 36.121094 C 9.300781 36.136719 8.808594 36.355469 8.445312 36.726562 L 7.03125 38.140625 C 6.507812 38.640625 6.296875 39.386719 6.480469 40.089844 C 6.664062 40.789062 7.210938 41.335938 7.910156 41.519531 C 8.613281 41.703125 9.359375 41.492188 9.859375 40.96875 L 11.273438 39.554688 C 11.863281 38.980469 12.042969 38.101562 11.722656 37.339844 C 11.398438 36.582031 10.644531 36.097656 9.820312 36.121094 Z M 38.121094 36.121094 C 37.308594 36.121094 36.574219 36.613281 36.269531 37.367188 C 35.960938 38.121094 36.144531 38.988281 36.726562 39.554688 L 38.140625 40.96875 C 38.640625 41.492188 39.386719 41.703125 40.089844 41.519531 C 40.789062 41.335938 41.335938 40.789062 41.519531 40.089844 C 41.703125 39.386719 41.492188 38.640625 40.96875 38.140625 L 39.554688 36.726562 C 39.179688 36.339844 38.660156 36.121094 38.121094 36.121094 Z M 38.121094 36.121094 "/>
</g>
</svg>
